PathFileType	4	(X/Y/Z)	G:\GRF\jawan data\CompiledGRF\03. Mohit Kumar\0231~ac~Walking 01_markers.trc
DataRate	CameraRate	NumFrames	NumMarkers	Units	OrigDataRate	OrigDataStartFrame	OrigNumFrames
100.000000	100.000000	4	18	mm	100.000000	503	805
Frame#	Time	c7			r should			l should			sacrum			r asis			r bar 1			r knee 1			r bar 2			r mall			r heel			r met			l asis			l bar 1			l knee 1			l bar 2			l mall			l heel			l met			
		X1	Y1	Z1	X2	Y2	Z2	X3	Y3	Z3	X4	Y4	Z4	X5	Y5	Z5	X6	Y6	Z6	X7	Y7	Z7	X8	Y8	Z8	X9	Y9	Z9	X10	Y10	Z10	X11	Y11	Z11	X12	Y12	Z12	X13	Y13	Z13	X14	Y14	Z14	X15	Y15	Z15	X16	Y16	Z16	X17	Y17	Z17	X18	Y18	Z18	

504	5.03	1259.18310546875	1505.486694335938	273.9722290039063	1348.347900390625	1434.624267578125	435.5380859375	1332.029907226563	1464.28369140625	99.1767578125	1228.766479492188	1033.34716796875	263.822509765625	1423.115478515625	1016.381958007813	366.9273986816406	1413.546264648438	596.8192749023438	426.7251281738281	1433.0234375	514.40576171875	369.8052673339844	1385.990600585938	187.9011993408203	376.9783325195313	1394.176879882813	66.90276336669922	309.3345947265625	1339.23486328125	34.34917068481445	259.8722229003906	1543.533813476563	33.3864631652832	312.3513793945313	1392.83349609375	1010.908752441406	117.6338043212891	1370.659301757813	592.2637939453125	28.50409507751465	1405.343994140625	497.1170654296875	65.80535888671875	1174.408935546875	341.2616882324219	28.02773666381836	1041.192504882813	229.1625213623047	99.49493408203125	985.7022705078125	261.379638671875	157.0752105712891	1077.3759765625	88.74578857421875	126.7482452392578	
505	5.04	1267.604370117188	1506.497436523438	275.7123413085938	1358.410888671875	1435.7001953125	436.4377136230469	1338.747802734375	1464.891479492188	100.2063446044922	1238.05224609375	1034.721557617188	264.073974609375	1431.126953125	1017.321594238281	369.072509765625	1417.167602539063	596.9549560546875	427.2617797851563	1435.884643554688	514.292724609375	370.3103942871094	1386.932250976563	188.0448608398438	377.1817932128906	1393.930053710938	66.93618774414063	309.1534423828125	1339.080932617188	34.48406600952148	259.8447875976563	1543.58544921875	33.30657196044922	312.4847412109375	1402.50830078125	1013.198486328125	119.7385177612305	1389.28076171875	594.9012451171875	28.53696441650391	1425.044799804688	500.508544921875	66.25994110107422	1194.188354492188	344.2415466308594	28.12054061889648	1061.254028320313	232.0982666015625	99.10198974609375	1003.705627441406	262.3703918457031	158.1327667236328	1100.692993164063	92.06027984619141	122.21484375	
506	5.05	1275.907348632813	1507.289672851563	277.3653869628906	1368.348388671875	1436.946166992188	437.4056701660156	1345.460693359375	1465.635986328125	101.2278823852539	1246.045166015625	1036.55810546875	264.2864685058594	1438.898071289063	1018.169738769531	371.3021545410156	1420.387084960938	597.056884765625	427.8057556152344	1438.573120117188	514.17041015625	370.8344421386719	1387.602783203125	188.2762451171875	377.2894592285156	1393.933837890625	66.98248291015625	309.1092224121094	1339.773315429688	34.27643966674805	259.874267578125	1543.628540039063	33.18608093261719	312.556640625	1412.260986328125	1015.566467285156	122.020866394043	1408.154296875	597.66845703125	28.63002777099609	1444.314208984375	503.8791198730469	66.91799163818359	1214.100952148438	346.7212219238281	28.39657211303711	1081.766357421875	233.7705688476563	98.64590454101563	1023.19287109375	261.67822265625	158.7145690917969	1124.85546875	94.63574981689453	118.2803726196289	
507	5.06	1284.296020507813	1508.082641601563	279.0641784667969	1378.254760742188	1438.308837890625	438.3134155273438	1351.839599609375	1466.335083007813	102.2510833740234	1253.983642578125	1038.244018554688	264.3479919433594	1446.39892578125	1018.851257324219	373.5042724609375	1423.292114257813	597.1787109375	428.2661743164063	1441.094970703125	514.0833740234375	371.3507080078125	1387.820190429688	188.5514526367188	377.2720947265625	1393.978393554688	67.12794494628906	309.0714111328125	1339.55712890625	34.58035659790039	259.7616271972656	1543.874145507813	33.21173858642578	312.5675354003906	1421.990844726563	1017.884948730469	124.4542770385742	1427.072021484375	600.5314331054688	28.80807685852051	1462.984619140625	507.1222839355469	67.75611114501953	1233.824462890625	348.6303100585938	28.65205192565918	1102.543701171875	234.1754150390625	98.11544799804688	1043.030639648438	259.71337890625	158.9135437011719	1149.302001953125	96.15532684326172	115.0959243774414	
